<svg xmlns="http://www.w3.org/2000/svg" width="62" height="62" viewBox="0 0 62 62">
  <g id="Editar" transform="translate(-902 -413)">
    <rect id="Rectángulo_4" data-name="Rectángulo 4" width="62" height="62" rx="5" transform="translate(902 413)" fill="#fff"/>
    <path id="border_color_FILL0_wght500_GRAD0_opsz48" d="M7.15,48a3.033,3.033,0,0,1-2.225-.925A3.092,3.092,0,0,1,4,44.8a2.994,2.994,0,0,1,.95-2.225A3.117,3.117,0,0,1,7.2,41.65H40.85a2.994,2.994,0,0,1,2.225.95A3.117,3.117,0,0,1,44,44.85a3.02,3.02,0,0,1-.95,2.2A3.075,3.075,0,0,1,40.8,48Zm2.5-11.65a1.681,1.681,0,0,1-1.2-.475,1.614,1.614,0,0,1-.5-1.225V30.2a1.549,1.549,0,0,1,.125-.6A1.9,1.9,0,0,1,8.5,29L26.7,10.8l6.85,6.85L15.3,35.85a1.23,1.23,0,0,1-.55.4,1.888,1.888,0,0,1-.6.1Zm1.5-3.2h2.2L29.1,17.45l-2.2-2.2L11.15,30.95ZM35.6,15.55,28.8,8.7l4.25-4.3a1.894,1.894,0,0,1,1.35-.675,2.113,2.113,0,0,1,1.5.675l3.9,3.9a2,2,0,0,1,.1,2.95ZM11.15,33.15Z" transform="translate(909 418.276)" fill="#6458f5"/>
  </g>
</svg>
