<svg xmlns="http://www.w3.org/2000/svg" width="62" height="62" viewBox="0 0 62 62">
  <g id="Save" transform="translate(-1016 -522)">
    <rect id="Rectángulo_6" data-name="Rectángulo 6" width="62" height="62" rx="5" transform="translate(1016 522)" fill="#6458f5" opacity="0"/>
    <path id="save_FILL0_wght500_GRAD0_opsz48" d="M9.1,42.3a3.26,3.26,0,0,1-2.375-1.025A3.26,3.26,0,0,1,5.7,38.9V9.1A3.234,3.234,0,0,1,6.725,6.7,3.3,3.3,0,0,1,9.1,5.7H32.85a3.551,3.551,0,0,1,2.45,1l6,6a3.551,3.551,0,0,1,1,2.45V38.9a3.3,3.3,0,0,1-1,2.375A3.234,3.234,0,0,1,38.9,42.3ZM38.9,15.25,32.75,9.1H9.1V38.9H38.9ZM24,35.65a5.2,5.2,0,0,0,3.675-8.875,5.221,5.221,0,0,0-7.35-.025A5.213,5.213,0,0,0,24,35.65ZM13.45,18.9h14.5a1.628,1.628,0,0,0,1.7-1.7V13.45a1.681,1.681,0,0,0-.475-1.2,1.614,1.614,0,0,0-1.225-.5H13.45a1.707,1.707,0,0,0-1.7,1.7V17.2a1.614,1.614,0,0,0,.5,1.225,1.681,1.681,0,0,0,1.2.475ZM9.1,15.25v0Z" transform="translate(1023.3 529.3)" fill="#fff"/>
  </g>
</svg>
