<svg xmlns="http://www.w3.org/2000/svg" width="62" height="62" viewBox="0 0 62 62">
  <g id="Eliminar" transform="translate(-902 -522)">
    <rect id="Rectángulo_10" data-name="Rectángulo 10" width="62" height="62" rx="5" transform="translate(902 522)" fill="#6458f5" opacity="0"/>
    <path id="delete_forever_FILL0_wght500_GRAD0_opsz48" d="M12.95,42.3a3.234,3.234,0,0,1-2.4-1.025,3.3,3.3,0,0,1-1-2.375V10.6H9a1.614,1.614,0,0,1-1.225-.5A1.681,1.681,0,0,1,7.3,8.9,1.628,1.628,0,0,1,9,7.2h8.2a1.7,1.7,0,0,1,.5-1.25,1.637,1.637,0,0,1,1.2-.5H29.1a1.637,1.637,0,0,1,1.2.5,1.7,1.7,0,0,1,.5,1.25H39a1.614,1.614,0,0,1,1.225.5A1.681,1.681,0,0,1,40.7,8.9,1.628,1.628,0,0,1,39,10.6h-.55V38.9a3.3,3.3,0,0,1-1,2.375,3.234,3.234,0,0,1-2.4,1.025Zm0-31.7V38.9h22.1V10.6Zm0,0v0ZM24,27.15l4.7,4.75a1.876,1.876,0,0,0,2.55,0,1.942,1.942,0,0,0,.525-1.275A1.516,1.516,0,0,0,31.25,29.4l-4.7-4.8,4.7-4.8a1.785,1.785,0,0,0,.525-1.25,1.544,1.544,0,0,0-.525-1.25,1.876,1.876,0,0,0-2.55,0L24,22.05,19.35,17.3a1.516,1.516,0,0,0-1.225-.525A2.143,2.143,0,0,0,16.8,17.3a1.635,1.635,0,0,0-.525,1.25,2.115,2.115,0,0,0,.525,1.3l4.7,4.75-4.7,4.75a1.807,1.807,0,0,0-.5,1.25,1.715,1.715,0,0,0,1.8,1.8,1.807,1.807,0,0,0,1.25-.5Z" transform="translate(909.7 529.55)" fill="#6458f5"/>
  </g>
</svg>
